<mxfile host="app.diagrams.net" modified="2021-02-06T16:01:15.018Z" agent="5.0 (Macintosh; Intel Mac OS X 11_1_0) AppleWebKit/537.36 (KHTML, like Gecko) Chrome/88.0.4324.96 Safari/537.36" etag="1A89KYzZp3O2l3AWXO0y" version="14.2.9" type="github">
  <diagram id="nxDO0HKId64olgzhvc23" name="Page-1">
    <mxGraphModel dx="1298" dy="752" grid="1" gridSize="10" guides="1" tooltips="1" connect="1" arrows="1" fold="1" page="1" pageScale="1" pageWidth="1600" pageHeight="900" math="0" shadow="0">
      <root>
        <mxCell id="0" />
        <mxCell id="1" parent="0" />
        <mxCell id="GQ0lHKYLTIi-07OIOTTy-3" value="" style="edgeStyle=orthogonalEdgeStyle;orthogonalLoop=1;jettySize=auto;html=1;horizontal=1;" parent="1" source="GQ0lHKYLTIi-07OIOTTy-1" target="GQ0lHKYLTIi-07OIOTTy-2" edge="1">
          <mxGeometry relative="1" as="geometry" />
        </mxCell>
        <mxCell id="GQ0lHKYLTIi-07OIOTTy-1" value="C0" style="ellipse;whiteSpace=wrap;html=1;aspect=fixed;labelPosition=center;verticalLabelPosition=middle;align=center;verticalAlign=middle;fontSize=15;direction=east;rounded=1;" parent="1" vertex="1">
          <mxGeometry x="100" y="190" width="50" height="50" as="geometry" />
        </mxCell>
        <mxCell id="GQ0lHKYLTIi-07OIOTTy-16" style="edgeStyle=orthogonalEdgeStyle;orthogonalLoop=1;jettySize=auto;html=1;fontSize=16;dashed=1;" parent="1" source="GQ0lHKYLTIi-07OIOTTy-2" target="GQ0lHKYLTIi-07OIOTTy-15" edge="1">
          <mxGeometry relative="1" as="geometry">
            <Array as="points">
              <mxPoint x="290" y="215" />
              <mxPoint x="290" y="335" />
            </Array>
          </mxGeometry>
        </mxCell>
        <mxCell id="GQ0lHKYLTIi-07OIOTTy-47" style="edgeStyle=orthogonalEdgeStyle;orthogonalLoop=1;jettySize=auto;html=1;entryX=0;entryY=0.5;entryDx=0;entryDy=0;fontSize=15;fontColor=#525252;" parent="1" source="GQ0lHKYLTIi-07OIOTTy-2" target="GQ0lHKYLTIi-07OIOTTy-45" edge="1">
          <mxGeometry relative="1" as="geometry" />
        </mxCell>
        <mxCell id="GQ0lHKYLTIi-07OIOTTy-2" value="C1" style="ellipse;whiteSpace=wrap;html=1;aspect=fixed;labelPosition=center;verticalLabelPosition=middle;align=center;verticalAlign=middle;fontSize=15;direction=east;rounded=1;" parent="1" vertex="1">
          <mxGeometry x="215" y="190" width="50" height="50" as="geometry" />
        </mxCell>
        <mxCell id="GQ0lHKYLTIi-07OIOTTy-5" value="Master" style="text;align=center;verticalAlign=middle;resizable=0;points=[];autosize=1;fontFamily=Noto Sans TC;fontSource=https%3A%2F%2Ffonts.googleapis.com%2Fcss%3Ffamily%3DNoto%2BSans%2BTC;fontStyle=1;fontSize=16;shadow=0;labelBorderColor=none;rounded=1;labelBackgroundColor=#AB2424;fontColor=#FEFFFA;spacingTop=0;spacingBottom=0;spacingRight=0;spacing=1;" parent="1" vertex="1">
          <mxGeometry x="40" y="165" width="70" height="30" as="geometry" />
        </mxCell>
        <mxCell id="GQ0lHKYLTIi-07OIOTTy-14" value="" style="edgeStyle=orthogonalEdgeStyle;orthogonalLoop=1;jettySize=auto;html=1;fontSize=16;exitX=0.5;exitY=0;exitDx=0;exitDy=0;entryX=0.5;entryY=1;entryDx=0;entryDy=0;dashed=1;" parent="1" source="GQ0lHKYLTIi-07OIOTTy-18" edge="1">
          <mxGeometry relative="1" as="geometry">
            <mxPoint x="500" y="340" as="sourcePoint" />
            <mxPoint x="550" y="335" as="targetPoint" />
          </mxGeometry>
        </mxCell>
        <mxCell id="GQ0lHKYLTIi-07OIOTTy-17" value="" style="edgeStyle=orthogonalEdgeStyle;orthogonalLoop=1;jettySize=auto;html=1;fontSize=16;dashed=1;" parent="1" source="GQ0lHKYLTIi-07OIOTTy-15" target="GQ0lHKYLTIi-07OIOTTy-18" edge="1">
          <mxGeometry relative="1" as="geometry">
            <mxPoint x="245" y="470" as="targetPoint" />
          </mxGeometry>
        </mxCell>
        <mxCell id="GQ0lHKYLTIi-07OIOTTy-15" value="C2" style="ellipse;whiteSpace=wrap;html=1;aspect=fixed;labelPosition=center;verticalLabelPosition=middle;align=center;verticalAlign=middle;direction=south;fillColor=#ffe6cc;strokeColor=#d79b00;fontSize=15;rounded=1;" parent="1" vertex="1">
          <mxGeometry x="320" y="310" width="50" height="50" as="geometry" />
        </mxCell>
        <mxCell id="GQ0lHKYLTIi-07OIOTTy-18" value="C3" style="ellipse;whiteSpace=wrap;html=1;aspect=fixed;labelPosition=center;verticalLabelPosition=middle;align=center;verticalAlign=middle;direction=south;fillColor=#f5f5f5;strokeColor=#666666;fontSize=15;rounded=1;dashed=1;opacity=60;sketch=0;fixDash=0;autosize=0;container=0;fontColor=#333333;" parent="1" vertex="1">
          <mxGeometry x="430" y="310" width="50" height="50" as="geometry" />
        </mxCell>
        <mxCell id="GQ0lHKYLTIi-07OIOTTy-21" value="Feature/A" style="text;align=center;verticalAlign=middle;resizable=0;points=[];autosize=1;fontSize=16;fontFamily=Noto Sans TC;rounded=1;shadow=0;fontSource=https%3A%2F%2Ffonts.googleapis.com%2Fcss%3Ffamily%3DNoto%2BSans%2BTC;fontColor=#FEFFFA;fontStyle=1;labelBackgroundColor=#4F4F4F;spacing=1;spacingTop=0;spacingBottom=0;spacingRight=0;" parent="1" vertex="1">
          <mxGeometry x="230" y="290" width="90" height="20" as="geometry" />
        </mxCell>
        <mxCell id="GQ0lHKYLTIi-07OIOTTy-43" value="HEAD" style="whiteSpace=wrap;html=1;arcSize=40;fontColor=#000000;fillColor=#ffffc0;strokeColor=#ff0000;shadow=0;direction=east;rounded=1;" parent="1" vertex="1">
          <mxGeometry x="285" y="123" width="120" height="40" as="geometry" />
        </mxCell>
        <mxCell id="GQ0lHKYLTIi-07OIOTTy-44" value="" style="edgeStyle=orthogonalEdgeStyle;html=1;verticalAlign=bottom;endArrow=open;endSize=8;strokeColor=#ff0000;fontSize=15;dashed=1;dashPattern=1 1;" parent="1" source="GQ0lHKYLTIi-07OIOTTy-43" edge="1">
          <mxGeometry relative="1" as="geometry">
            <mxPoint x="345" y="290" as="targetPoint" />
          </mxGeometry>
        </mxCell>
        <mxCell id="2b01QjpyZ43eBbl6fvD0-8" value="" style="edgeStyle=orthogonalEdgeStyle;rounded=1;orthogonalLoop=1;jettySize=auto;html=1;dashed=1;fontFamily=Noto Sans TC;fontSource=https%3A%2F%2Ffonts.googleapis.com%2Fcss%3Ffamily%3DNoto%2BSans%2BTC;fontSize=15;fontColor=#525252;" edge="1" parent="1" source="GQ0lHKYLTIi-07OIOTTy-45">
          <mxGeometry relative="1" as="geometry">
            <mxPoint x="516" y="215" as="targetPoint" />
          </mxGeometry>
        </mxCell>
        <mxCell id="GQ0lHKYLTIi-07OIOTTy-45" value="C4" style="ellipse;whiteSpace=wrap;html=1;aspect=fixed;labelPosition=center;verticalLabelPosition=middle;align=center;verticalAlign=middle;fontSize=15;direction=east;rounded=1;" parent="1" vertex="1">
          <mxGeometry x="386" y="190" width="50" height="50" as="geometry" />
        </mxCell>
        <mxCell id="2b01QjpyZ43eBbl6fvD0-3" value="File-A&lt;br&gt;File-B" style="strokeWidth=2;html=1;shape=mxgraph.flowchart.document2;whiteSpace=wrap;size=0.25;rounded=1;shadow=0;labelBackgroundColor=#FEFFFA;sketch=0;fillColor=#ffe6cc;fontFamily=Noto Sans TC;fontSource=https%3A%2F%2Ffonts.googleapis.com%2Fcss%3Ffamily%3DNoto%2BSans%2BTC;fontSize=15;opacity=60;align=center;horizontal=1;verticalAlign=top;strokeColor=#d79b00;spacingTop=6;" vertex="1" parent="1">
          <mxGeometry x="320" y="380" width="100" height="80" as="geometry" />
        </mxCell>
      </root>
    </mxGraphModel>
  </diagram>
</mxfile>
